<mxfile host="app.diagrams.net" agent="Mozilla/5.0 (Windows NT 10.0; Win64; x64) AppleWebKit/537.36 (KHTML, like Gecko) Chrome/134.0.0.0 Safari/537.36" version="26.1.0">
  <diagram name="Page-1" id="bd83a815-5ea8-2e97-e5ec-87c9f400f2fa">
    <mxGraphModel dx="512" dy="742" grid="1" gridSize="10" guides="1" tooltips="1" connect="1" arrows="1" fold="1" page="1" pageScale="1.5" pageWidth="1169" pageHeight="826" background="none" math="0" shadow="0">
      <root>
        <mxCell id="0" style=";html=1;" />
        <mxCell id="1" style=";html=1;" parent="0" />
        <mxCell id="hjPGnx0NAynyaUXNDUS3-16" value="" style="rounded=0;whiteSpace=wrap;html=1;" vertex="1" parent="1">
          <mxGeometry x="150" y="140" width="540" height="670" as="geometry" />
        </mxCell>
        <mxCell id="hjPGnx0NAynyaUXNDUS3-1" value="" style="rounded=0;whiteSpace=wrap;html=1;" vertex="1" parent="1">
          <mxGeometry x="160" y="150" width="520" height="40" as="geometry" />
        </mxCell>
        <mxCell id="hjPGnx0NAynyaUXNDUS3-2" value="" style="rounded=0;whiteSpace=wrap;html=1;" vertex="1" parent="1">
          <mxGeometry x="160" y="190" width="520" height="300" as="geometry" />
        </mxCell>
        <mxCell id="hjPGnx0NAynyaUXNDUS3-5" value="REQUISITOS FUNCIONAIS" style="text;html=1;align=center;verticalAlign=middle;whiteSpace=wrap;rounded=0;" vertex="1" parent="1">
          <mxGeometry x="310" y="155" width="220" height="30" as="geometry" />
        </mxCell>
        <mxCell id="hjPGnx0NAynyaUXNDUS3-6" value="- Manter a temperatura do resistor do kit em um valor determinado pelo usuário.&lt;div&gt;&lt;br&gt;&lt;/div&gt;&lt;div&gt;-&amp;nbsp;O cooler deverá ser utilizado para manter a temperatura do sistema controlada.&lt;/div&gt;&lt;div&gt;&lt;br&gt;&lt;/div&gt;&lt;div&gt;-&amp;nbsp;Deve ser possível monitorar a velocidade de rotação do cooler.&lt;/div&gt;&lt;div&gt;&lt;br&gt;&lt;/div&gt;&lt;div&gt;-&amp;nbsp;O sistema deve fornecer uma interface local para operação.&lt;/div&gt;&lt;div&gt;&lt;br&gt;&lt;/div&gt;&lt;div&gt;- O sistema deverá exibir a temperatura atual.&lt;/div&gt;&lt;div&gt;&lt;br&gt;&lt;/div&gt;&lt;div&gt;&lt;span style=&quot;background-color: transparent; color: light-dark(rgb(0, 0, 0), rgb(255, 255, 255));&quot;&gt;-&amp;nbsp;O sistema deve fornecer uma interface local para operação.&lt;/span&gt;&lt;/div&gt;&lt;div&gt;&lt;span style=&quot;background-color: transparent; color: light-dark(rgb(0, 0, 0), rgb(255, 255, 255));&quot;&gt;&lt;br&gt;&lt;/span&gt;&lt;/div&gt;&lt;div&gt;&lt;span style=&quot;background-color: transparent; color: light-dark(rgb(0, 0, 0), rgb(255, 255, 255));&quot;&gt;- O controle de temperatura pelo usuário deve ser feito pelo teclado matricial.&lt;/span&gt;&lt;/div&gt;&lt;div&gt;&lt;br&gt;&lt;/div&gt;&lt;div&gt;- O sistema deverá permitir o controle por comandos seriais em uma interface UART.&lt;/div&gt;&lt;div&gt;&lt;br&gt;&lt;/div&gt;&lt;div&gt;- O sistema deve indicar luminosamente o estado da temperatura.&lt;/div&gt;" style="text;html=1;align=left;verticalAlign=top;whiteSpace=wrap;rounded=0;" vertex="1" parent="1">
          <mxGeometry x="180" y="210" width="480" height="260" as="geometry" />
        </mxCell>
        <mxCell id="hjPGnx0NAynyaUXNDUS3-8" value="" style="rounded=0;whiteSpace=wrap;html=1;" vertex="1" parent="1">
          <mxGeometry x="160" y="500" width="520" height="40" as="geometry" />
        </mxCell>
        <mxCell id="hjPGnx0NAynyaUXNDUS3-9" value="" style="rounded=0;whiteSpace=wrap;html=1;" vertex="1" parent="1">
          <mxGeometry x="160" y="540" width="520" height="260" as="geometry" />
        </mxCell>
        <mxCell id="hjPGnx0NAynyaUXNDUS3-10" value="REQUISITOS NÃO FUNCIONAIS" style="text;html=1;align=center;verticalAlign=middle;whiteSpace=wrap;rounded=0;" vertex="1" parent="1">
          <mxGeometry x="310" y="505" width="220" height="30" as="geometry" />
        </mxCell>
        <mxCell id="hjPGnx0NAynyaUXNDUS3-11" value="- A temperatura máxima é de 90°C&lt;div&gt;&lt;br&gt;&lt;/div&gt;&lt;div&gt;-&amp;nbsp;O sistema deve aquecer o mais rápido possível.&lt;/div&gt;&lt;div&gt;&lt;br&gt;&lt;/div&gt;&lt;div&gt;-&amp;nbsp;O overshoot máximo deve ser de 2°C.&lt;/div&gt;&lt;div&gt;&lt;br&gt;&lt;/div&gt;&lt;div&gt;- O sistema deverá exibir a temperatura atual.&lt;/div&gt;&lt;div&gt;&lt;br&gt;&lt;/div&gt;&lt;div&gt;- O cooler deve ligar quando a temperatura estiver próxima da temperatura determinada.&lt;/div&gt;&lt;div&gt;&lt;br&gt;&lt;/div&gt;&lt;div&gt;- O display LCD deve exibir a temperatura atual e a velocidade do cooler.&lt;/div&gt;&lt;div&gt;&lt;br&gt;&lt;/div&gt;&lt;div&gt;- O estado atual de atuação do sistema responsável pela temperatura deve ser exibido via led (LED verde: aquecendo o sistema, LED amarelo: temperatura na faixa de overshoot, LED vermelho: temperatura máxima excedida, LED azul: cooler ligado)&amp;nbsp;&lt;/div&gt;" style="text;html=1;align=left;verticalAlign=top;whiteSpace=wrap;rounded=0;" vertex="1" parent="1">
          <mxGeometry x="180" y="555" width="480" height="255" as="geometry" />
        </mxCell>
        <mxCell id="hjPGnx0NAynyaUXNDUS3-15" style="edgeStyle=orthogonalEdgeStyle;rounded=0;orthogonalLoop=1;jettySize=auto;html=1;exitX=0.5;exitY=1;exitDx=0;exitDy=0;" edge="1" parent="1" source="hjPGnx0NAynyaUXNDUS3-6" target="hjPGnx0NAynyaUXNDUS3-6">
          <mxGeometry relative="1" as="geometry" />
        </mxCell>
      </root>
    </mxGraphModel>
  </diagram>
</mxfile>
